<svg xmlns="http://www.w3.org/2000/svg" viewBox="0 0 960 240" role="img" aria-label="AstroAlarm">
  <defs>
    <linearGradient id="bg" x1="0" y1="0" x2="1" y2="1">
      <stop offset="0%" stop-color="#070B16"/>
      <stop offset="100%" stop-color="#0D121D"/>
    </linearGradient>
  </defs>
  <rect width="960" height="240" fill="url(#bg)"/>
  <g transform="translate(48,48) scale(0.28125)">
    <rect width="512" height="512" rx="64" fill="#0D121D"/>
    <circle cx="256" cy="256" r="205" fill="#151E2E" stroke="#78909C" stroke-width="8"/>
    <path d="M 256 256 L 51 256 A 205 205 0 0 1 461 256 Z" fill="#D8E8F8"/>
    <path d="M 256 256 L 51 256 A 205 205 0 0 1 92 138 Z" fill="#FFA726"/>
    <path d="M 256 256 L 420 138 A 205 205 0 0 1 461 256 Z" fill="#FFA726"/>
    <path d="M 256 256 L 230 54 A 205 205 0 0 1 282 54 Z" fill="#FFFFFF"/>
    <circle cx="256" cy="256" r="56" fill="#1976D2" stroke="#64B5F6" stroke-width="4"/>
    <path d="M 243 220 Q 276 210 286 240 Q 271 276 235 266 Q 220 240 243 220 Z" fill="#388E3C"/>
    <circle cx="256" cy="256" r="8" fill="#FFD54F"/>
    <line x1="256" y1="256" x2="256" y2="82" stroke="#EF5350" stroke-width="9" stroke-linecap="round"/>
  </g>
  <text x="224" y="118" font-family="system-ui, -apple-system, sans-serif" font-size="48" font-weight="700" fill="#E6E6F0">AstroAlarm</text>
  <text x="224" y="164" font-family="system-ui, -apple-system, sans-serif" font-size="22" fill="#C9A227">Wake with the sun, the moon, and your own clock.</text>
</svg>
